<svg xmlns="http://www.w3.org/2000/svg">
	<symbol id="trash-can" viewBox="0 0 23 24">
		<path fill-rule="evenodd" clip-rule="evenodd" d="M8.79471 0H14.8339C15.6834 0 16.3745 0.70275 16.3745 1.56656V3.60316H22.8144V5.48303H20.8569L19.3286 23.1422C19.2871 23.6275 18.8871 24 18.408 24H5.18977C4.71067 24 4.311 23.6278 4.2691 23.1425L2.74085 5.48303H0.814453V3.60316H7.25411V1.56656C7.25411 0.70275 7.94522 0 8.79471 0ZM9.10283 3.60316H14.5258V1.87988H9.10283V3.60316ZM17.5613 22.1201H6.03623L4.59667 5.48303H19.0012L17.5613 22.1201ZM9.16365 8.20548L9.5642 19.3282L7.71672 19.3971L7.31613 8.27443L9.16365 8.20548ZM16.3127 8.27468L14.4651 8.20577L14.0646 19.3285L15.9121 19.3971L16.3127 8.27468ZM12.7386 8.2402H10.8899V19.3629H12.7386V8.2402Z" />
	</symbol>
</svg>
