<svg width="18" height="18" viewBox="0 0 18 18" fill="none" xmlns="http://www.w3.org/2000/svg">
  <g clip-path="url(#clip0)">
    <path d="M12.4308 6.20598L11.0218 6.1543L10.7163 14.4963L12.1253 14.5478L12.4308 6.20598Z" fill="#7B7B7B"/>
    <path d="M9.70532 6.17969H8.29541V14.5217H9.70532V6.17969Z" fill="#7B7B7B"/>
    <path d="M7.28429 14.4963L6.97882 6.1543L5.56982 6.20601L5.87533 14.548L7.28429 14.4963Z" fill="#7B7B7B"/>
    <path d="M0.611328 2.70215V4.11205H2.08047L3.24597 17.3566C3.27793 17.7206 3.58273 17.9998 3.94811 17.9998H14.0288C14.3942 17.9998 14.6992 17.7204 14.731 17.3564L15.8965 4.11205H17.3894V2.70215H0.611328ZM13.3831 16.5899H4.59365L3.49579 4.11205H14.4812L13.3831 16.5899Z" fill="#7B7B7B"/>
    <path d="M11.3026 0H6.69689C6.04903 0 5.52197 0.527062 5.52197 1.17492V3.40731H6.93188V1.40991H11.0677V3.40731H12.4776V1.17492C12.4776 0.527062 11.9505 0 11.3026 0Z" fill="#7B7B7B"/>
  </g>
  <defs>
    <clipPath id="clip0">
      <rect width="18" height="18" fill="white"/>
    </clipPath>
  </defs>
</svg>
