<svg width="68" height="68" viewBox="0 0 68 68" fill="none" xmlns="http://www.w3.org/2000/svg">
<mask id="path-1-outside-1" maskUnits="userSpaceOnUse" x="0" y="0" width="69" height="68" fill="black">
<rect fill="white" width="69" height="68"/>
<path fill-rule="evenodd" clip-rule="evenodd" d="M61.3564 6.66931C55.1644 0.443564 45.1251 0.443564 38.9331 6.66931C32.7411 12.895 32.7411 22.989 38.9331 29.2147C45.1251 35.4405 55.1644 35.4405 61.3564 29.2147C67.5484 22.989 67.5484 12.895 61.3564 6.66931ZM15.7035 21.9362L2 66L45.8251 52.2219C45.8251 52.2219 27.3747 45.3132 24.9747 42.9002C22.5747 40.4872 15.7035 21.9362 15.7035 21.9362Z"/>
</mask>
<path fill-rule="evenodd" clip-rule="evenodd" d="M61.3564 6.66931C55.1644 0.443564 45.1251 0.443564 38.9331 6.66931C32.7411 12.895 32.7411 22.989 38.9331 29.2147C45.1251 35.4405 55.1644 35.4405 61.3564 29.2147C67.5484 22.989 67.5484 12.895 61.3564 6.66931ZM15.7035 21.9362L2 66L45.8251 52.2219C45.8251 52.2219 27.3747 45.3132 24.9747 42.9002C22.5747 40.4872 15.7035 21.9362 15.7035 21.9362Z" fill="#ED3232"/>
<path d="M38.9331 6.66931L40.3512 8.07967L40.3512 8.07967L38.9331 6.66931ZM38.9331 29.2147L40.3512 27.8043L38.9331 29.2147ZM61.3564 29.2147L62.7745 30.6251L62.7745 30.6251L61.3564 29.2147ZM2 66L0.0902224 65.4061C-0.130747 66.1166 0.0610082 66.8911 0.587976 67.4164C1.11494 67.9417 1.88999 68.1311 2.59983 67.9079L2 66ZM15.7035 21.9362L17.579 21.2416C17.2816 20.4387 16.5062 19.9142 15.6503 19.937C14.7944 19.9597 14.048 20.5248 13.7937 21.3423L15.7035 21.9362ZM45.8251 52.2219L46.4249 54.1298C47.2394 53.8737 47.8015 53.1289 47.8244 52.2755C47.8473 51.4221 47.3259 50.6482 46.5264 50.3489L45.8251 52.2219ZM24.9747 42.9002L23.5566 44.3106L23.5566 44.3106L24.9747 42.9002ZM40.3512 8.07967C45.7613 2.64011 54.5283 2.64011 59.9384 8.07967L62.7745 5.25894C55.8005 -1.75298 44.489 -1.75298 37.5151 5.25894L40.3512 8.07967ZM40.3512 27.8043C34.9351 22.3588 34.9351 13.5253 40.3512 8.07967L37.5151 5.25894C30.5471 12.2648 30.5471 23.6192 37.5151 30.6251L40.3512 27.8043ZM59.9384 27.8043C54.5283 33.2439 45.7613 33.2439 40.3512 27.8043L37.5151 30.6251C44.489 37.637 55.8005 37.637 62.7745 30.6251L59.9384 27.8043ZM59.9384 8.07967C65.3545 13.5253 65.3545 22.3588 59.9384 27.8043L62.7745 30.6251C69.7424 23.6192 69.7424 12.2648 62.7745 5.25894L59.9384 8.07967ZM3.90978 66.5939L17.6133 22.5302L13.7937 21.3423L0.0902224 65.4061L3.90978 66.5939ZM45.2253 50.3139L1.40017 64.0921L2.59983 67.9079L46.4249 54.1298L45.2253 50.3139ZM23.5566 44.3106C24.0633 44.82 24.8233 45.3045 25.5668 45.7297C26.361 46.1838 27.3275 46.6754 28.3833 47.1795C30.4981 48.1892 33.0673 49.2948 35.5365 50.3145C38.0104 51.3362 40.406 52.2807 42.1815 52.9694C43.0698 53.3139 43.8041 53.5947 44.3168 53.7897C44.5731 53.8872 44.7742 53.9632 44.9115 54.015C44.9802 54.0409 45.0329 54.0607 45.0686 54.0742C45.0865 54.0809 45.1001 54.086 45.1093 54.0894C45.1139 54.0912 45.1175 54.0925 45.1199 54.0934C45.1211 54.0939 45.122 54.0942 45.1227 54.0944C45.123 54.0946 45.1233 54.0947 45.1234 54.0947C45.1236 54.0948 45.1238 54.0949 45.8251 52.2219C46.5264 50.3489 46.5264 50.3489 46.5263 50.3488C46.5262 50.3488 46.5261 50.3487 46.5258 50.3486C46.5254 50.3485 46.5246 50.3482 46.5236 50.3478C46.5215 50.347 46.5184 50.3458 46.5141 50.3442C46.5056 50.341 46.4927 50.3362 46.4756 50.3298C46.4414 50.3169 46.3902 50.2977 46.3231 50.2724C46.189 50.2218 45.9913 50.147 45.7385 50.0509C45.2328 49.8586 44.5068 49.5809 43.6279 49.24C41.869 48.5578 39.502 47.6245 37.0633 46.6174C34.6198 45.6083 32.1265 44.5342 30.1068 43.5699C29.0954 43.087 28.2267 42.6429 27.5525 42.2574C26.8276 41.8429 26.486 41.5836 26.3927 41.4898L23.5566 44.3106ZM15.7035 21.9362C13.828 22.6309 13.8281 22.6311 13.8282 22.6313C13.8282 22.6314 13.8283 22.6317 13.8284 22.632C13.8287 22.6327 13.829 22.6336 13.8295 22.6348C13.8304 22.6372 13.8317 22.6408 13.8334 22.6454C13.8369 22.6547 13.8419 22.6684 13.8486 22.6864C13.862 22.7223 13.8817 22.7753 13.9074 22.8443C13.9589 22.9823 14.0345 23.1844 14.1315 23.4422C14.3254 23.9577 14.6047 24.6959 14.9473 25.5889C15.6322 27.374 16.5716 29.7825 17.5876 32.2697C18.6017 34.7521 19.7011 37.335 20.7051 39.4607C21.2064 40.5221 21.6951 41.4934 22.1465 42.2913C22.569 43.0383 23.0503 43.8015 23.5566 44.3106L26.3927 41.4898C26.299 41.3956 26.0406 41.0512 25.628 40.3219C25.2443 39.6435 24.8024 38.7696 24.322 37.7525C23.3627 35.7212 22.2943 33.2139 21.2906 30.757C20.2888 28.3048 19.3604 25.9247 18.6819 24.1562C18.3429 23.2724 18.0667 22.5424 17.8754 22.0339C17.7798 21.7797 17.7054 21.581 17.6551 21.4461C17.6299 21.3786 17.6108 21.3271 17.598 21.2927C17.5916 21.2755 17.5868 21.2625 17.5836 21.254C17.582 21.2497 17.5808 21.2465 17.5801 21.2444C17.5797 21.2434 17.5794 21.2426 17.5792 21.2422C17.5791 21.2419 17.5791 21.2418 17.579 21.2417C17.579 21.2416 17.579 21.2416 15.7035 21.9362Z" fill="#8E2222" mask="url(#path-1-outside-1)"/>
</svg>
