<svg width="69" height="69" viewBox="0 0 69 69" fill="none" xmlns="http://www.w3.org/2000/svg">
<mask id="path-1-outside-1" maskUnits="userSpaceOnUse" x="0.0478516" y="0.978516" width="69" height="68" fill="black">
<rect fill="white" x="0.0478516" y="0.978516" width="69" height="68"/>
<path fill-rule="evenodd" clip-rule="evenodd" d="M38.981 7.64782C45.173 1.42208 55.2122 1.42208 61.4043 7.64782C67.5963 13.8736 67.5963 23.9675 61.4043 30.1932C55.2122 36.419 45.173 36.419 38.981 30.1932C32.789 23.9675 32.789 13.8736 38.981 7.64782ZM2.04785 66.9785L15.7514 22.9148C15.7514 22.9148 22.6226 41.4657 25.0225 43.8787C27.4225 46.2918 45.8729 53.2004 45.8729 53.2004L2.04785 66.9785ZM24.9162 21.4107C24.9162 21.4107 27.9533 36.4762 30.3426 38.8785C32.7319 41.2809 47.7158 44.3345 47.7158 44.3345L32.9158 36.2914L24.9162 21.4107Z"/>
</mask>
<path fill-rule="evenodd" clip-rule="evenodd" d="M38.981 7.64782C45.173 1.42208 55.2122 1.42208 61.4043 7.64782C67.5963 13.8736 67.5963 23.9675 61.4043 30.1932C55.2122 36.419 45.173 36.419 38.981 30.1932C32.789 23.9675 32.789 13.8736 38.981 7.64782ZM2.04785 66.9785L15.7514 22.9148C15.7514 22.9148 22.6226 41.4657 25.0225 43.8787C27.4225 46.2918 45.8729 53.2004 45.8729 53.2004L2.04785 66.9785ZM24.9162 21.4107C24.9162 21.4107 27.9533 36.4762 30.3426 38.8785C32.7319 41.2809 47.7158 44.3345 47.7158 44.3345L32.9158 36.2914L24.9162 21.4107Z" fill="#ED3232"/>
<path d="M61.4043 7.64782L59.9862 9.05819L59.9862 9.05819L61.4043 7.64782ZM38.981 7.64782L40.399 9.05819L40.399 9.05819L38.981 7.64782ZM61.4043 30.1932L59.9862 28.7829L59.9862 28.7829L61.4043 30.1932ZM38.981 30.1932L40.399 28.7829L38.981 30.1932ZM15.7514 22.9148L17.6268 22.2201C17.3295 21.4172 16.554 20.8927 15.6982 20.9155C14.8423 20.9382 14.0958 21.5033 13.8416 22.3208L15.7514 22.9148ZM2.04785 66.9785L0.138074 66.3846C-0.0828951 67.0951 0.10886 67.8696 0.635827 68.3949C1.1628 68.9203 1.93784 69.1096 2.64768 68.8864L2.04785 66.9785ZM25.0225 43.8787L23.6045 45.2891L23.6045 45.2891L25.0225 43.8787ZM45.8729 53.2004L46.4728 55.1083C47.2872 54.8523 47.8493 54.1075 47.8722 53.254C47.8951 52.4006 47.3738 51.6267 46.5743 51.3274L45.8729 53.2004ZM30.3426 38.8785L28.9246 40.2889L28.9246 40.2889L30.3426 38.8785ZM24.9162 21.4107L26.6778 20.4637C26.2085 19.5906 25.1703 19.193 24.2378 19.5293C23.3053 19.8656 22.7598 20.8342 22.9557 21.8059L24.9162 21.4107ZM47.7158 44.3345L47.3165 46.2942C48.2869 46.492 49.2559 45.9497 49.595 45.0192C49.934 44.0886 49.541 43.0501 48.6708 42.5772L47.7158 44.3345ZM32.9158 36.2914L31.1542 37.2384C31.3385 37.5812 31.6188 37.8628 31.9608 38.0486L32.9158 36.2914ZM62.8223 6.23745C55.8484 -0.774464 44.5369 -0.774464 37.5629 6.23745L40.399 9.05819C45.8091 3.61862 54.5761 3.61862 59.9862 9.05819L62.8223 6.23745ZM62.8223 31.6036C69.7903 24.5977 69.7903 13.2434 62.8223 6.23745L59.9862 9.05819C65.4023 14.5038 65.4023 23.3373 59.9862 28.7829L62.8223 31.6036ZM37.5629 31.6036C44.5369 38.6155 55.8484 38.6155 62.8223 31.6036L59.9862 28.7829C54.5761 34.2224 45.8091 34.2224 40.399 28.7829L37.5629 31.6036ZM37.5629 6.23745C30.595 13.2434 30.595 24.5977 37.5629 31.6036L40.399 28.7829C34.9829 23.3373 34.9829 14.5038 40.399 9.05819L37.5629 6.23745ZM13.8416 22.3208L0.138074 66.3846L3.95763 67.5724L17.6611 23.5087L13.8416 22.3208ZM26.4406 42.4684C26.3469 42.3741 26.0885 42.0298 25.6759 41.3004C25.2921 40.622 24.8503 39.7481 24.3699 38.731C23.4105 36.6998 22.3421 34.1925 21.3384 31.7355C20.3367 29.2833 19.4083 26.9033 18.7298 25.1347C18.3907 24.2509 18.1145 23.5209 17.9233 23.0125C17.8276 22.7583 17.7533 22.5595 17.703 22.4246C17.6778 22.3571 17.6586 22.3057 17.6458 22.2712C17.6394 22.254 17.6346 22.2411 17.6314 22.2325C17.6299 22.2282 17.6287 22.225 17.6279 22.2229C17.6275 22.2219 17.6272 22.2212 17.6271 22.2207C17.627 22.2204 17.6269 22.2203 17.6269 22.2202C17.6269 22.2201 17.6268 22.2201 15.7514 22.9148C13.8759 23.6094 13.8759 23.6096 13.876 23.6098C13.8761 23.6099 13.8762 23.6102 13.8763 23.6105C13.8765 23.6112 13.8769 23.6121 13.8773 23.6133C13.8782 23.6158 13.8795 23.6193 13.8813 23.6239C13.8847 23.6332 13.8898 23.6469 13.8965 23.6649C13.9098 23.7008 13.9295 23.7538 13.9553 23.8228C14.0068 23.9608 14.0824 24.163 14.1793 24.4207C14.3732 24.9362 14.6526 25.6744 14.9952 26.5674C15.68 28.3525 16.6194 30.761 17.6355 33.2482C18.6496 35.7306 19.749 38.3135 20.753 40.4392C21.2543 41.5006 21.743 42.4719 22.1943 43.2698C22.6169 44.0169 23.0982 44.78 23.6045 45.2891L26.4406 42.4684ZM45.8729 53.2004C46.5743 51.3274 46.5743 51.3274 46.5742 51.3273C46.5741 51.3273 46.5739 51.3272 46.5737 51.3272C46.5732 51.327 46.5725 51.3267 46.5714 51.3263C46.5694 51.3255 46.5662 51.3244 46.562 51.3228C46.5534 51.3196 46.5406 51.3147 46.5234 51.3083C46.4892 51.2954 46.438 51.2762 46.3709 51.2509C46.2368 51.2003 46.0391 51.1255 45.7863 51.0294C45.2806 50.8371 44.5547 50.5594 43.6757 50.2185C41.9168 49.5364 39.5498 48.603 37.1111 47.5959C34.6677 46.5868 32.1743 45.5127 30.1546 44.5484C29.1433 44.0655 28.2746 43.6215 27.6003 43.2359C26.8755 42.8214 26.5339 42.5621 26.4406 42.4684L23.6045 45.2891C24.1112 45.7986 24.8711 46.2831 25.6147 46.7082C26.4088 47.1624 27.3753 47.6539 28.4312 48.1581C30.5459 49.1678 33.1152 50.2733 35.5843 51.293C38.0583 52.3147 40.4538 53.2593 42.2294 53.9479C43.1177 54.2924 43.8519 54.5733 44.3646 54.7682C44.621 54.8657 44.8221 54.9417 44.9594 54.9935C45.028 55.0194 45.0807 55.0392 45.1164 55.0527C45.1343 55.0594 45.1479 55.0645 45.1572 55.068C45.1618 55.0697 45.1653 55.071 45.1677 55.0719C45.1689 55.0724 45.1699 55.0727 45.1705 55.073C45.1708 55.0731 45.1711 55.0732 45.1713 55.0732C45.1715 55.0733 45.1716 55.0734 45.8729 53.2004ZM2.64768 68.8864L46.4728 55.1083L45.2731 51.2924L1.44802 65.0706L2.64768 68.8864ZM31.7607 37.4682C31.7024 37.4095 31.5098 37.1561 31.2225 36.5645C30.9552 36.0141 30.6686 35.3042 30.3717 34.4672C29.7789 32.7957 29.192 30.7504 28.669 28.7402C28.148 26.7373 27.6993 24.8038 27.3805 23.3686C27.2213 22.6518 27.0949 22.0612 27.0085 21.6507C26.9653 21.4456 26.9321 21.2855 26.9099 21.1774C26.8988 21.1233 26.8904 21.0822 26.8848 21.0549C26.882 21.0413 26.88 21.0311 26.8786 21.0245C26.878 21.0212 26.8775 21.0188 26.8772 21.0173C26.877 21.0165 26.8769 21.016 26.8769 21.0157C26.8768 21.0155 26.8768 21.0155 26.8768 21.0154C26.8768 21.0154 26.8768 21.0155 24.9162 21.4107C22.9557 21.8059 22.9557 21.8061 22.9558 21.8063C22.9558 21.8065 22.9559 21.8068 22.9559 21.8071C22.956 21.8077 22.9562 21.8085 22.9564 21.8096C22.9569 21.8118 22.9575 21.8148 22.9583 21.8188C22.9599 21.8266 22.9622 21.8381 22.9653 21.8531C22.9713 21.8829 22.9803 21.9267 22.992 21.9836C23.0154 22.0973 23.0498 22.2633 23.0943 22.4748C23.1833 22.8976 23.3129 23.5028 23.4757 24.2359C23.801 25.7005 24.261 27.6835 24.7979 29.7473C25.3329 31.8038 25.9532 33.9753 26.6018 35.8042C26.9257 36.7174 27.2683 37.5786 27.6244 38.3119C27.9605 39.0041 28.3856 39.7469 28.9246 40.2889L31.7607 37.4682ZM47.7158 44.3345C48.1152 42.3747 48.1153 42.3748 48.1153 42.3748C48.1152 42.3747 48.1152 42.3747 48.115 42.3747C48.1147 42.3746 48.1142 42.3745 48.1134 42.3744C48.1119 42.3741 48.1095 42.3736 48.1063 42.3729C48.0997 42.3716 48.0896 42.3695 48.076 42.3667C48.0489 42.3611 48.0081 42.3527 47.9543 42.3415C47.8468 42.3191 47.6877 42.2858 47.4837 42.2424C47.0755 42.1555 46.4883 42.0285 45.7755 41.8684C44.3482 41.5479 42.4255 41.0969 40.4339 40.5731C38.435 40.0474 36.4016 39.4575 34.7402 38.8618C33.9082 38.5636 33.203 38.2757 32.6565 38.0074C32.0693 37.7191 31.8185 37.5263 31.7607 37.4682L28.9246 40.2889C29.4641 40.8314 30.2042 41.2595 30.8937 41.598C31.624 41.9565 32.4814 42.3013 33.3902 42.6272C35.2102 43.2797 37.3709 43.9036 39.4166 44.4416C41.4696 44.9815 43.4422 45.4441 44.8991 45.7712C45.6284 45.935 46.2304 46.0652 46.651 46.1548C46.8614 46.1995 47.0265 46.2341 47.1396 46.2577C47.1962 46.2694 47.2398 46.2784 47.2695 46.2846C47.2844 46.2876 47.2958 46.29 47.3037 46.2916C47.3076 46.2924 47.3107 46.293 47.3128 46.2934C47.3139 46.2937 47.3147 46.2938 47.3153 46.2939C47.3156 46.294 47.3159 46.2941 47.3161 46.2941C47.3163 46.2941 47.3165 46.2942 47.7158 44.3345ZM31.9608 38.0486L46.7609 46.0917L48.6708 42.5772L33.8708 34.5341L31.9608 38.0486ZM23.1547 22.3577L31.1542 37.2384L34.6774 35.3444L26.6778 20.4637L23.1547 22.3577Z" fill="#8E2222" mask="url(#path-1-outside-1)"/>
</svg>
