<svg xmlns="http://www.w3.org/2000/svg">
	<symbol id="icon-filter" viewBox="0 0 22 21">
		<path d="M21.9364 1.13396C21.8263 0.903705 21.5913 0.756836 21.3333 0.756836H0.666813C0.408727 0.756836 0.173844 0.903705 0.0636933 1.13396C-0.0463689 1.36421 -0.0118745 1.63638 0.15233 1.83279L8.09681 11.3362V20.0992C8.09681 20.3268 8.21603 20.5381 8.41198 20.658C8.51937 20.7237 8.64126 20.7568 8.76359 20.7568C8.86467 20.7568 8.96611 20.7341 9.05964 20.6884L13.5233 18.5065C13.7501 18.3956 13.8936 18.1677 13.8939 17.9181L13.9026 11.3365L21.8476 1.8327C22.0119 1.63638 22.0464 1.36413 21.9364 1.13396ZM12.7218 10.6816C12.6236 10.7991 12.5697 10.9467 12.5695 11.0991L12.561 17.509L9.43045 19.0393V11.1C9.43045 10.9473 9.37667 10.7994 9.27816 10.6816L2.08073 2.07199H19.9193L12.7218 10.6816Z" />
	</symbol>
</svg>
