<svg xmlns="http://www.w3.org/2000/svg">
	<symbol id="icon-square" viewBox="0 0 20 20" >
		<path d="M17.2623 14.5997L16.1584 15.7043L17.0116 16.5579H13.2869L18.3887 11.4533V13.5176L19.9498 15.0795V1.2538V0H17.7669H4.83948L6.40076 1.56198H8.54202L3.40118 6.7058V2.97908L4.2543 3.83267L5.35812 2.72809L2.65961 0.0279389L-0.0390625 2.72809L1.06491 3.83267L1.8399 3.0571V15.9357C1.8399 16.4526 1.83559 18.12 1.83559 18.12H4.02298H16.9334L16.1584 18.8954L17.2623 20L19.9609 17.2998L17.2623 14.5997ZM11.0789 16.5579H8.89587L18.3887 7.06V9.24412L11.0789 16.5579ZM3.40118 13.2496L15.0822 1.56214H17.2847L3.40118 15.4533V13.2496ZM18.3887 2.66672V4.85084L6.68808 16.5579H4.505L18.3887 2.66672ZM10.7498 1.56214H12.8743L3.40118 11.0405V8.91481L10.7498 1.56214Z" />
	</symbol>

	<symbol id="icon-height" viewBox="0 0 20 20">
		<path fill-rule="evenodd" clip-rule="evenodd" d="M1.3 18.7L11.7 18.7L11.7 1.3L1.3 1.3L1.3 18.7ZM0 20H1.3L11.7 20H13V18.7L13 1.3V0H11.7H1.3L0 1.90735e-06V1.3V18.7V20ZM20 0V1L18 1V4H19V5H18V10H19V11H18V15H19V16H18V19H20V20H18H17H15V19H17V16H16V15H17V11H16V10H17V5H16V4H17V1L15 1V0H17H18H20ZM5 15V16H3V15H5ZM10 14V13H8V14H10ZM6 11V12H4V11H6ZM9 9V8H7V9H9ZM3 6H5V7H3V6ZM10 4H8V5H10V4Z" />
	</symbol>

	<symbol id="icon-hooks" viewBox="0 0 20 20" >
		<path fill-rule="evenodd" clip-rule="evenodd" d="M4.11954 1.3L1.50954 18.7H18.4905L15.8805 1.3H4.11954ZM17 0H3L0.195 18.7L0 20H1.31454H18.6855H20L19.805 18.7L17 0ZM7 6.00049H9V7.00049H7V6.00049ZM8 10V9H6V10H8ZM9 12V13H7V12H9ZM11 11V12H13V11H11ZM7 15V16H5V15H7ZM14 16V15H12V16H14ZM12 9V8H14V9H12ZM13 4H11V5H13V4Z" />
	</symbol>

	<symbol id="icon-place" viewBox="0 0 16 18" >
		<path fill-rule="evenodd" clip-rule="evenodd" d="M8.00032 0C10.423 0 12.6008 1.14087 13.9749 3.12964C15.3424 5.10837 15.6581 7.61349 14.8195 9.83078C14.5976 10.4303 14.2422 11.0169 13.7647 11.5703L8.47946 17.7784C8.3599 17.919 8.18471 18 8.00032 18C7.81593 18 7.64074 17.919 7.52117 17.7784L2.23445 11.5687C1.75906 11.0184 1.40325 10.4312 1.17941 9.82678C0.342549 7.61349 0.658287 5.10837 2.02569 3.12964C3.39984 1.14087 5.57767 0 8.00032 0ZM12.8108 10.7498C13.1903 10.3099 13.4698 9.85257 13.641 9.38998C14.3347 7.55539 14.0719 5.48413 12.9394 3.84546C11.8036 2.20151 10.0034 1.25873 8.00032 1.25873C5.99722 1.25873 4.1968 2.20157 3.06101 3.84546C1.92876 5.48413 1.66611 7.55539 2.3582 9.3858C2.53106 9.85281 2.81052 10.3101 3.18982 10.7497L8.00032 16.3999L12.8079 10.7532C12.8087 10.752 12.8098 10.7509 12.8108 10.7498ZM4.4754 7.2587C4.4754 5.31519 6.05659 3.73422 7.99989 3.73422C9.94318 3.73422 11.5244 5.3154 11.5244 7.2587C11.5244 9.20221 9.94339 10.7832 7.99989 10.7832C6.05638 10.7832 4.4754 9.20221 4.4754 7.2587ZM5.73413 7.25867C5.73413 8.508 6.75057 9.52441 7.99989 9.52441C9.2492 9.52441 10.2656 8.508 10.2656 7.25867C10.2656 6.00937 9.2492 4.99292 7.99989 4.99292C6.75057 4.99292 5.73413 6.00937 5.73413 7.25867Z" />
	</symbol>

	<symbol id="icon-zone" viewBox="0 0 20 20" >
		<path fill-rule="evenodd" clip-rule="evenodd" d="M1.3 7.7V1.3H7.7V7.7H1.3ZM0 1C0 0.447715 0.447715 0 1 0H8C8.55229 0 9 0.447715 9 1V8C9 8.55229 8.55229 9 8 9H1C0.447715 9 0 8.55229 0 8V1ZM12.3 7.7V1.3H18.7V7.7H12.3ZM11 1C11 0.447715 11.4477 0 12 0H19C19.5523 0 20 0.447715 20 1V8C20 8.55229 19.5523 9 19 9H12C11.4477 9 11 8.55229 11 8V1ZM1.3 12.3V18.7H7.7V12.3H1.3ZM1 11C0.447715 11 0 11.4477 0 12V19C0 19.5523 0.447715 20 1 20H8C8.55229 20 9 19.5523 9 19V12C9 11.4477 8.55229 11 8 11H1ZM12.3 18.7V12.3H18.7V18.7H12.3ZM11 12C11 11.4477 11.4477 11 12 11H19C19.5523 11 20 11.4477 20 12V19C20 19.5523 19.5523 20 19 20H12C11.4477 20 11 19.5523 11 19V12Z" />
	</symbol>

	<symbol id="icon-gym" viewBox="0 0 20 8" >
		<path d="M19.5007 3.30466H17.7623V1.86295C17.7623 1.43356 17.4132 1.08412 16.9834 1.08412H16.225V0.912358C16.225 0.408991 15.8157 0 15.3125 0H13.8666C13.3634 0 12.9545 0.408991 12.9545 0.912358V3.30466H7.11429V0.912358C7.11429 0.408991 6.70516 0 6.20179 0H4.7564C4.25303 0 3.8439 0.408991 3.8439 0.912358V1.08412H3.08533C2.65586 1.08412 2.30649 1.43356 2.30649 1.86295V3.30466H0.499258C0.22358 3.30466 0 3.52803 0 3.80392C0 4.07995 0.223649 4.30325 0.499258 4.30325H2.30649V5.77644C2.30649 6.20583 2.65593 6.55527 3.08533 6.55527H3.8439V6.69506C3.8439 7.19857 4.25303 7.60756 4.7564 7.60756H6.20193C6.7053 7.60756 7.11443 7.19864 7.11443 6.69506V4.30325H12.9546V6.69576C12.9546 7.19899 13.3635 7.60791 13.8667 7.60791H15.3126C15.8159 7.60791 16.2251 7.19899 16.2251 6.69576V6.55597H16.9836C17.4133 6.55597 17.7625 6.20625 17.7625 5.77671V4.30325H19.5009C19.7766 4.30325 20.0002 4.07995 20.0002 3.80392C20 3.52796 19.7764 3.30466 19.5007 3.30466ZM6.11577 4.30325V6.60925H4.84248V5.77671V4.30325V3.30466V1.86295V0.998586H6.11577V3.30459V4.30325ZM3.30508 4.30325V3.30466V2.08277H3.8439V3.30466V4.30325V5.55669H3.30508V4.30325ZM16.7637 4.30325V5.55669H16.2251V4.30325V3.30466V2.08277H16.7637V3.30466V4.30325ZM15.2264 5.7765V6.60897H13.9531V4.30325V3.30466V0.998656H15.2264V1.86302V3.30473V4.30332V5.7765Z" />
	</symbol>

	<symbol id="icon-light" viewBox="0 0 20 20">
		<path fill-rule="evenodd" clip-rule="evenodd" d="M9.31214 0.687836C9.31214 0.317474 9.6296 0 9.99997 0C10.3703 0 10.6878 0.317474 10.6878 0.687836V2.72485C10.6878 3.09525 10.3703 3.41269 9.99997 3.41269C9.6296 3.41269 9.31214 3.09525 9.31214 2.72485V0.687836ZM13.545 6.45486C12.6455 5.55539 11.3757 4.97339 10 4.97339C8.62438 4.97339 7.35453 5.52893 6.45506 6.45486C5.5556 7.35434 4.97358 8.62418 4.97358 9.99985C4.97358 11.3755 5.5556 12.6453 6.45506 13.5448C7.35453 14.4443 8.62438 15.0263 10 15.0263C11.3757 15.0263 12.6455 14.4707 13.545 13.5448C14.4445 12.6453 15.0265 11.3755 15.0265 9.99985C15.0265 8.62418 14.4709 7.35434 13.545 6.45486ZM12.5926 12.5924C11.9313 13.2538 11.0053 13.6506 10 13.6506C8.99475 13.6506 8.06882 13.2538 7.40744 12.5924C6.74607 11.9311 6.34924 11.0051 6.34924 9.99985C6.34924 8.99454 6.74607 8.0686 7.40744 7.40723C8.06882 6.74588 8.99475 6.34903 10 6.34903C11.0053 6.34903 11.9313 6.74588 12.5926 7.40723C13.254 8.0686 13.6508 8.99454 13.6508 9.99985C13.6508 11.0051 13.254 11.9311 12.5926 12.5924ZM19.3121 9.31232H17.2751C16.9047 9.31232 16.5873 9.62979 16.5873 10.0002C16.5873 10.3705 16.9047 10.688 17.2751 10.688H19.3121C19.6825 10.688 20 10.3705 20 10.0002C20 9.62979 19.6825 9.31232 19.3121 9.31232ZM9.31214 17.2753C9.31214 16.9049 9.6296 16.5875 9.99997 16.5875C10.3703 16.5875 10.6878 16.9049 10.6878 17.2753V19.3123C10.6878 19.6827 10.3703 20.0002 9.99997 20.0002C9.6296 20.0002 9.31214 19.6827 9.31214 19.3123V17.2753ZM17.0635 16.111L15.6085 14.656C15.3704 14.3914 14.9207 14.3914 14.6561 14.656C14.3916 14.9206 14.3916 15.3438 14.6561 15.6084L16.1111 17.0634C16.3757 17.328 16.799 17.328 17.0635 17.0634C17.3281 16.7989 17.3281 16.3756 17.0635 16.111ZM17.09 2.93655C16.8254 2.67203 16.4021 2.67203 16.1376 2.93655L14.6825 4.3916C14.418 4.65616 14.418 5.07944 14.6825 5.34399C14.9206 5.60852 15.3704 5.60852 15.6349 5.34399L17.09 3.88895C17.3545 3.62439 17.3545 3.20111 17.09 2.93655ZM0.687828 9.31232H2.72486C3.09523 9.31232 3.4127 9.62979 3.4127 10.0002C3.4127 10.3705 3.09523 10.688 2.72486 10.688H0.687828C0.291004 10.688 0 10.3705 0 10.0002C0 9.62979 0.317459 9.31232 0.687828 9.31232ZM5.31746 14.656C5.07937 14.3914 4.62963 14.3914 4.36508 14.656L2.91005 16.111C2.6455 16.3756 2.6455 16.7989 2.91005 17.0634C3.17461 17.328 3.59789 17.328 3.86243 17.0634L5.31746 15.6084C5.58201 15.3438 5.58201 14.9206 5.31746 14.656ZM3.86243 2.93655L5.31746 4.3916C5.58201 4.65616 5.58201 5.07944 5.31746 5.34399C5.05291 5.60852 4.62963 5.60852 4.36508 5.34399L2.91005 3.88895C2.6455 3.62439 2.6455 3.20111 2.91005 2.93655C3.17461 2.67203 3.59789 2.67203 3.86243 2.93655Z" />
	</symbol>

	<symbol id="icon-next" viewBox="0 0 14 14">
		<path d="M7.525 3.0624L10.5875 6.1249H0V7.8749H10.5875L7.525 10.9374L8.75 12.1624L14 6.9999L8.75 1.8374L7.525 3.0624Z" />
	</symbol>


</svg>
