<svg xmlns="http://www.w3.org/2000/svg">
	<symbol id="icon-btn-reload" viewBox="0 0 12 12">
		<g clip-path="url(#clip0)">
			<path d="M2.28723 10.6283C3.31419 11.4145 4.53575 11.83 5.81963 11.8299H5.81971C6.07841 11.8299 6.34051 11.8126 6.59865 11.7782C8.14235 11.5732 9.51386 10.7793 10.4604 9.54277C11.0364 8.79047 11.4236 7.90192 11.5802 6.97318C11.6074 6.81176 11.4986 6.65879 11.3372 6.63156L10.5577 6.50009C10.48 6.48705 10.4006 6.50527 10.3365 6.55084C10.2724 6.59642 10.2291 6.66555 10.216 6.7431C10.0967 7.45046 9.80141 8.12778 9.36196 8.70181C8.63998 9.64495 7.59396 10.2505 6.41644 10.4068C6.21905 10.4331 6.01877 10.4464 5.82125 10.4464C4.84271 10.4464 3.91147 10.1294 3.12807 9.52973C2.18497 8.80774 1.57943 7.76172 1.42307 6.58428C1.26666 5.40692 1.57817 4.23908 2.30011 3.29595C3.14759 2.18894 4.43654 1.55407 5.83647 1.55407C6.82012 1.55407 7.75286 1.87012 8.53393 2.468C8.79283 2.66618 9.02524 2.88757 9.23062 3.13022L7.77076 2.87251C7.69345 2.85879 7.61372 2.8765 7.54926 2.92156C7.48479 2.96666 7.44099 3.03547 7.42732 3.1129L7.28989 3.89137C7.26143 4.0526 7.36906 4.20635 7.53024 4.23481L11.0334 4.85328C11.0506 4.85632 11.0678 4.85778 11.085 4.85778C11.1454 4.85778 11.2048 4.83932 11.255 4.80422C11.3194 4.75913 11.3632 4.69031 11.3769 4.61288L11.9953 1.10968C12.0238 0.948456 11.9162 0.794699 11.7549 0.766201L10.9765 0.628769C10.815 0.600191 10.6615 0.707939 10.633 0.869166L10.3728 2.34349C10.0808 1.98135 9.74548 1.65325 9.37481 1.36949C8.35053 0.585369 7.12735 0.170898 5.83742 0.170898C4.0025 0.170898 2.31284 1.00344 1.20164 2.45499C0.255113 3.69161 -0.153271 5.22277 0.0517509 6.76646C0.256812 8.31027 1.05073 9.6817 2.28723 10.6283Z" />
		</g>
		<defs>
			<clipPath id="clip0">
				<rect width="12" height="12"/>
			</clipPath>
		</defs>
	</symbol>

	<symbol id="icon-btn-download" viewBox="0 0 13 12">
		<path fill-rule="evenodd" clip-rule="evenodd" d="M5.6748 0V6.00827L4.08317 4.41664L2.91644 5.58336L5.91644 8.58336L6.4998 9.16673L7.08317 8.58336L10.0832 5.58336L8.91644 4.41664L7.3248 6.00827V0H5.6748ZM0.174805 7V11V11.825H0.999805H11.9998H12.8248V11V7H11.1748V10.175H1.8248V7H0.174805Z" />
	</symbol>

	<symbol id="icon-btn-close" viewBox="0 0 13 13">
		<rect width="1.69706" height="15.2735" transform="matrix(0.707111 -0.707103 0.707111 0.707103 0.332031 1.86816)" />
		<rect width="1.69706" height="15.2735" transform="matrix(0.707111 0.707103 -0.707111 0.707103 11.1328 0.667969)" />
	</symbol>


</svg>
