<svg xmlns="http://www.w3.org/2000/svg">
	<symbol id="icon-vk" viewBox="0 0 16 10">
		<path d="M15.6676 8.36194C15.6488 8.3214 15.6313 8.28777 15.615 8.26083C15.3455 7.77537 14.8304 7.1795 14.07 6.47306L14.054 6.45689L14.0459 6.44895L14.0378 6.44082H14.0296C13.6846 6.11187 13.466 5.89068 13.3745 5.77744C13.2071 5.56173 13.1696 5.34338 13.2611 5.12214C13.3258 4.95498 13.5686 4.60198 13.9891 4.06263C14.2103 3.7768 14.3855 3.54771 14.5148 3.37512C15.4478 2.13477 15.8523 1.34217 15.7282 0.997013L15.68 0.916353C15.6476 0.867794 15.564 0.82337 15.4294 0.782856C15.2944 0.742427 15.1219 0.735741 14.9115 0.762684L12.582 0.778776C12.5443 0.765404 12.4904 0.766651 12.4202 0.782856C12.3501 0.799062 12.315 0.807193 12.315 0.807193L12.2745 0.82745L12.2423 0.851786C12.2153 0.867878 12.1856 0.896182 12.1533 0.936639C12.121 0.976954 12.0941 1.02427 12.0726 1.07818C11.819 1.73068 11.5306 2.33734 11.207 2.89813C11.0074 3.23252 10.8242 3.52233 10.6568 3.7677C10.4897 4.013 10.3495 4.19372 10.2363 4.30957C10.123 4.42553 10.0207 4.51843 9.92888 4.5886C9.83717 4.65881 9.76717 4.68847 9.71869 4.67762C9.6701 4.66677 9.62435 4.656 9.58103 4.64524C9.50558 4.59668 9.4449 4.53064 9.39914 4.44706C9.35319 4.36348 9.32225 4.25829 9.30607 4.13156C9.28998 4.00475 9.28046 3.89568 9.27774 3.80397C9.27522 3.71237 9.27638 3.58281 9.28185 3.41566C9.28746 3.24842 9.28998 3.13526 9.28998 3.07594C9.28998 2.87099 9.29398 2.64856 9.302 2.40859C9.31015 2.16863 9.31675 1.97849 9.32228 1.83842C9.32778 1.69821 9.33033 1.54987 9.33033 1.39348C9.33033 1.23709 9.32081 1.11445 9.302 1.02543C9.28341 0.936525 9.25488 0.850228 9.21728 0.766566C9.17946 0.682988 9.1241 0.618336 9.05146 0.572439C8.97868 0.526599 8.88819 0.490222 8.7805 0.463194C8.49467 0.398513 8.13069 0.363524 7.68841 0.358085C6.68545 0.347319 6.041 0.412084 5.75519 0.552296C5.64195 0.611536 5.53948 0.692479 5.44786 0.794868C5.35077 0.913548 5.33722 0.978314 5.40731 0.988967C5.73092 1.03744 5.96 1.1534 6.09483 1.33673L6.14342 1.43388C6.18121 1.50397 6.21895 1.62806 6.25672 1.80599C6.29443 1.98391 6.31876 2.18072 6.32947 2.39633C6.35639 2.79005 6.35639 3.12708 6.32947 3.40744C6.30247 3.68792 6.27697 3.90627 6.25264 4.06266C6.2283 4.21905 6.19192 4.34578 6.14342 4.44281C6.09483 4.53987 6.06251 4.5992 6.0463 4.62073C6.03012 4.64226 6.01664 4.65583 6.00593 4.66116C5.93584 4.68802 5.86294 4.7017 5.78749 4.7017C5.71193 4.7017 5.62031 4.66391 5.51248 4.58838C5.40468 4.51285 5.2928 4.4091 5.17684 4.27696C5.06088 4.14479 4.9301 3.9601 4.78445 3.72286C4.63891 3.48561 4.48791 3.20521 4.33152 2.88167L4.20213 2.64703C4.12124 2.49608 4.01075 2.27629 3.87054 1.98784C3.73024 1.69929 3.60624 1.42017 3.49843 1.15054C3.45534 1.0373 3.39061 0.951088 3.30434 0.891762L3.26385 0.867425C3.23694 0.845893 3.19373 0.82303 3.13446 0.798665C3.07511 0.774328 3.01318 0.756876 2.94841 0.746139L0.732078 0.762231C0.505597 0.762231 0.351928 0.813539 0.271014 0.916013L0.238631 0.964488C0.222454 0.991488 0.214294 1.03461 0.214294 1.09396C0.214294 1.15329 0.230472 1.2261 0.262854 1.31231C0.586398 2.07273 0.938245 2.80608 1.31839 3.51249C1.69854 4.21891 2.02889 4.78794 2.30923 5.21909C2.58962 5.65055 2.87543 6.05775 3.16665 6.44051C3.45786 6.82341 3.65063 7.06879 3.74495 7.17659C3.83937 7.28459 3.91354 7.36533 3.96746 7.41924L4.16972 7.61334C4.29913 7.74279 4.48918 7.89782 4.73994 8.07843C4.99076 8.25915 5.26843 8.43708 5.57311 8.61247C5.87784 8.78759 6.23235 8.93049 6.63684 9.04101C7.04127 9.15165 7.4349 9.19604 7.8178 9.17462H8.74803C8.93669 9.15833 9.07962 9.09901 9.17677 8.99662L9.20895 8.95608C9.2306 8.92389 9.25086 8.87389 9.26956 8.8066C9.28848 8.7392 9.29789 8.66494 9.29789 8.58417C9.29236 8.35234 9.31001 8.14339 9.35036 7.95737C9.39067 7.7714 9.43663 7.63119 9.48802 7.53676C9.53938 7.44242 9.59735 7.36281 9.66186 7.29827C9.72651 7.23359 9.77258 7.19441 9.79961 7.18092C9.82646 7.16735 9.84791 7.15814 9.86409 7.15262C9.99351 7.1095 10.1458 7.15126 10.3212 7.2781C10.4965 7.40482 10.6609 7.5613 10.8147 7.74726C10.9684 7.9334 11.1531 8.14223 11.3687 8.37407C11.5845 8.60599 11.7732 8.77838 11.9349 8.89179L12.0967 8.98886C12.2047 9.05362 12.3449 9.11295 12.5175 9.16686C12.6897 9.22075 12.8407 9.23423 12.9703 9.20729L15.041 9.17499C15.2458 9.17499 15.4051 9.14108 15.5182 9.07379C15.6314 9.00639 15.6987 8.93214 15.7204 8.85136C15.7421 8.77051 15.7432 8.67877 15.7245 8.57621C15.7054 8.47391 15.6865 8.40237 15.6676 8.36194Z" />
	</symbol>

	<symbol id="icon-twitter" viewBox="0 0 17 14">
		<path fill-rule="evenodd" clip-rule="evenodd" d="M4.97854 10.6097C3.27254 10.5507 2.20654 9.32571 1.92354 8.33171C2.39854 8.42171 2.86654 8.40371 3.33154 8.28871C3.34354 8.28671 3.35454 8.27871 3.37854 8.26771C2.45454 8.05271 1.74154 7.55871 1.24654 6.76171C0.917545 6.23271 0.760545 5.65271 0.765545 5.01571C1.22654 5.26271 1.70854 5.40071 2.22654 5.41371C1.53154 4.91371 1.06554 4.25871 0.874545 3.42171C0.685545 2.58771 0.808545 1.79271 1.22754 1.04471C3.00454 3.13771 5.25454 4.28571 7.99854 4.47471C7.97854 4.34471 7.95854 4.23071 7.94554 4.11571C7.85254 3.33071 8.01354 2.59871 8.44654 1.93571C9.01554 1.06671 10.0025 0.502712 11.0405 0.441712C11.9825 0.385712 12.8145 0.711712 13.5245 1.39971C13.5855 1.41771 13.6395 1.43371 13.7005 1.45171C14.3755 1.30571 15.0115 1.06271 15.6095 0.717712C15.6245 0.709712 15.6385 0.701712 15.6535 0.695712C15.6565 0.692712 15.6615 0.693712 15.6755 0.693712C15.4155 1.45771 14.9425 2.04571 14.2695 2.48071C14.9055 2.41071 15.5125 2.24171 16.0975 1.98871C16.1025 1.99371 16.1065 1.99871 16.1105 2.00371C15.9855 2.16771 15.8635 2.33571 15.7335 2.49571C15.3835 2.92671 14.9815 3.30571 14.5335 3.63371C14.5165 3.66971 14.5025 3.69771 14.4855 3.73271C14.5035 4.21971 14.4845 4.70671 14.4245 5.19071C14.2985 6.21071 14.0135 7.18371 13.5785 8.11371C13.1285 9.07271 12.5425 9.94071 11.8045 10.7017C10.5535 11.9947 9.04655 12.8287 7.29254 13.2157C6.64154 13.3587 5.97855 13.4257 5.31054 13.4357C4.48655 13.4487 3.66855 13.2747 2.89555 12.9907C-0.035455 11.9147 0.361545 12.1207 0.133545 11.9727C1.27954 12.0967 2.36854 11.9497 3.41754 11.5207C3.97454 11.2927 4.48954 10.9927 4.97854 10.6097Z" />
	</symbol>

	<symbol id="icon-youtube" viewBox="0 0 18 12" >
		<path fill-rule="evenodd" clip-rule="evenodd" d="M7.05132 8.37381C8.72732 7.50481 10.3893 6.64281 12.0733 5.76981C10.3873 4.88981 8.72532 4.02281 7.05132 3.14881V8.37381ZM2.62132 11.2718C2.01132 11.0718 1.60032 10.6718 1.38032 10.0658C0.842323 8.58781 0.683323 2.40581 1.71832 1.18881C2.07232 0.771808 2.52732 0.527808 3.06932 0.468808C5.85832 0.169808 14.4753 0.211808 15.4693 0.569808C16.0513 0.779808 16.4643 1.16081 16.6883 1.74381C17.2773 3.27081 17.2973 8.82981 16.6113 10.3018C16.4253 10.7008 16.1213 10.9818 15.7363 11.1838C14.6973 11.7288 3.98932 11.7228 2.62132 11.2718Z" />
	</symbol>

	<symbol id="icon-telegram" viewBox="0 0 13 12" >
		<path fill-rule="evenodd" clip-rule="evenodd" d="M12.9623 1.88867L11.0007 11.2285C10.8527 11.8877 10.4668 12.0518 9.91832 11.7412L6.92948 9.51758L5.48729 10.918C5.32769 11.0791 5.19421 11.2139 4.88662 11.2139L5.10135 8.14063L10.6409 3.08692C10.8817 2.87012 10.5886 2.75 10.2665 2.9668L3.41832 7.32032L0.470104 6.38867C-0.171191 6.18653 -0.182798 5.74121 0.603586 5.43067L12.1353 0.945315C12.6692 0.743166 13.1364 1.06543 12.9623 1.88867V1.88867Z" />
	</symbol>
</svg>
