<svg width="20" height="18" viewBox="0 0 20 18" fill="none" xmlns="http://www.w3.org/2000/svg">
	<symbol id="icon-like" viewBox="0 0 20 18" >
		<path d="M9.99998 17.9059C9.71525 17.9059 9.44075 17.8027 9.22682 17.6154C8.41887 16.9089 7.63991 16.245 6.95265 15.6593L6.94914 15.6563C4.93423 13.9392 3.19427 12.4564 1.98364 10.9956C0.630339 9.36264 0 7.81433 0 6.12289C0 4.47952 0.563506 2.96341 1.58661 1.85364C2.62191 0.730743 4.0425 0.112305 5.58715 0.112305C6.74163 0.112305 7.7989 0.477295 8.72954 1.19705C9.1992 1.56036 9.62492 2.005 9.99998 2.52365C10.3752 2.005 10.8008 1.56036 11.2706 1.19705C12.2012 0.477295 13.2585 0.112305 14.413 0.112305C15.9575 0.112305 17.3782 0.730743 18.4135 1.85364C19.4366 2.96341 20 4.47952 20 6.12289C20 7.81433 19.3698 9.36264 18.0165 10.9955C16.8058 12.4564 15.066 13.9391 13.0514 15.656C12.363 16.2425 11.5828 16.9075 10.773 17.6157C10.5592 17.8027 10.2846 17.9059 9.99998 17.9059ZM5.58715 1.28387C4.37362 1.28387 3.25881 1.76819 2.44781 2.64771C1.62475 3.5405 1.17141 4.77463 1.17141 6.12289C1.17141 7.54547 1.70013 8.81775 2.88558 10.2481C4.03136 11.6307 5.73562 13.083 7.70888 14.7647L7.71254 14.7678C8.40239 15.3557 9.1844 16.0222 9.9983 16.7339C10.8171 16.0208 11.6003 15.3532 12.2915 14.7644C14.2647 13.0827 15.9688 11.6307 17.1145 10.2481C18.2998 8.81775 18.8285 7.54547 18.8285 6.12289C18.8285 4.77463 18.3752 3.5405 17.5522 2.64771C16.7413 1.76819 15.6263 1.28387 14.413 1.28387C13.524 1.28387 12.7078 1.56647 11.9871 2.12372C11.3449 2.62054 10.8975 3.2486 10.6352 3.68805C10.5003 3.91403 10.2629 4.04892 9.99998 4.04892C9.73707 4.04892 9.49965 3.91403 9.36476 3.68805C9.10261 3.2486 8.65523 2.62054 8.01283 2.12372C7.29216 1.56647 6.47597 1.28387 5.58715 1.28387Z" />
	</symbol>
</svg>
