<svg xmlns="http://www.w3.org/2000/svg">
	<symbol id="icon-clock" viewBox="0 0 20 20">
		<path fill-rule="evenodd" clip-rule="evenodd" d="M10 20C15.5228 20 20 15.5228 20 10C20 4.47715 15.5228 0 10 0C4.47715 0 0 4.47715 0 10C0 15.5228 4.47715 20 10 20ZM9 3C9 2.44772 9.44771 2 10 2C10.5523 2 11 2.44772 11 3V8.60358C11.0425 8.63435 11.083 8.66885 11.1213 8.70711L15.3639 12.9498C15.7545 13.3403 15.7545 13.9734 15.3639 14.364C14.9734 14.7545 14.3403 14.7545 13.9497 14.364L9.70709 10.1213C9.63499 10.0492 9.5762 9.96886 9.53073 9.88328C9.21496 9.71517 9 9.38269 9 9V3Z" />
	</symbol>

	<symbol id="icon-alarm" viewBox="0 0 22 23">
		<path fill-rule="evenodd" clip-rule="evenodd" d="M9.03452 2.04601C5.40631 2.39359 2.34413 4.67988 0.895989 7.85683C0.331211 7.04701 0 6.06218 0 5C0 2.23858 2.23858 0 5 0C6.65639 0 8.12465 0.805431 9.03452 2.04601ZM11 23C16.5228 23 21 18.5228 21 13C21 7.47715 16.5228 3 11 3C5.47715 3 1 7.47715 1 13C1 18.5228 5.47715 23 11 23ZM10 6C10 5.44772 10.4477 5 11 5C11.5523 5 12 5.44772 12 6V11.6036C12.0425 11.6343 12.083 11.6689 12.1213 11.7071L16.3639 15.9498C16.7545 16.3403 16.7545 16.9734 16.3639 17.364C15.9734 17.7545 15.3403 17.7545 14.9497 17.364L10.7071 13.1213C10.635 13.0492 10.5762 12.9689 10.5307 12.8833C10.215 12.7152 10 12.3827 10 12V6ZM13.2319 1.89896C16.6754 2.47549 19.6763 4.84161 20.9511 8.25622C21.9139 7.05627 22.3119 5.42957 21.8832 3.82963C21.1685 1.1623 18.4268 -0.420614 15.7595 0.294095C14.7335 0.569009 13.8679 1.14383 13.2319 1.89896Z" />
	</symbol>
</svg>