<svg xmlns="http://www.w3.org/2000/svg">
	<symbol id="point" viewBox="0 0 11 15" >
		<path fill-rule="evenodd" clip-rule="evenodd" d="M7.1541 6.46235L9.36144 9.68251C9.47406 9.8468 9.68277 9.92297 9.88017 9.87202C10.0776 9.82108 10.2188 9.65429 10.231 9.45807L10.7631 1.25891C10.7842 0.913045 10.3284 0.659579 10.028 0.850136L2.92218 5.39355C2.75189 5.50186 2.67252 5.70301 2.72542 5.89319C2.77826 6.08439 2.95181 6.22058 3.15518 6.23114L7.1541 6.46235ZM1.20787 9.98732C0.292372 11.5147 0.837739 13.4751 2.42342 14.3569C4.0091 15.2388 6.04444 14.7135 6.95993 13.1861C7.87542 11.6588 7.33006 9.6983 5.74438 8.81648C4.1587 7.93467 2.12336 8.45997 1.20787 9.98732Z" />
	</symbol>
</svg>
